<svg id="Sliders-Up--Streamline-Atlas.svg" xmlns="http://www.w3.org/2000/svg" viewBox="-1 -1 32 32" height="32" width="32"><desc>Sliders Up Streamline Icon: https://streamlinehq.com</desc><defs></defs><path d="M1.875 15a2.3874999999999997 2.3874999999999997 0 1 0 4.7749999999999995 0 2.3874999999999997 2.3874999999999997 0 1 0 -4.7749999999999995 0" fill="none" stroke="#000000" stroke-miterlimit="10" stroke-width="2"></path><path d="M12.6125 23.35a2.3874999999999997 2.3874999999999997 0 1 0 4.7749999999999995 0 2.3874999999999997 2.3874999999999997 0 1 0 -4.7749999999999995 0" fill="none" stroke="#000000" stroke-miterlimit="10" stroke-width="2"></path><path d="M23.35 6.65a2.3874999999999997 2.3874999999999997 0 1 0 4.7749999999999995 0 2.3874999999999997 2.3874999999999997 0 1 0 -4.7749999999999995 0" fill="none" stroke="#000000" stroke-miterlimit="10" stroke-width="2"></path><path d="m25.7375 29.3125 0 -20.275" fill="none" stroke="#000000" stroke-miterlimit="10" stroke-width="2"></path><path d="m25.7375 4.2625 0 -3.5749999999999997" fill="none" stroke="#000000" stroke-miterlimit="10" stroke-width="2"></path><path d="m15 29.3125 0 -3.5749999999999997" fill="none" stroke="#000000" stroke-miterlimit="10" stroke-width="2"></path><path d="M15 20.9625 15 0.6875" fill="none" stroke="#000000" stroke-miterlimit="10" stroke-width="2"></path><path d="m4.2625 29.3125 0 -11.924999999999999" fill="none" stroke="#000000" stroke-miterlimit="10" stroke-width="2"></path><path d="m4.2625 12.6125 0 -11.924999999999999" fill="none" stroke="#000000" stroke-miterlimit="10" stroke-width="2"></path></svg>