<svg xmlns="http://www.w3.org/2000/svg" viewBox="-1.125 -1.125 36 36" id="Cloud-Database--Streamline-Atlas.svg" height="36" width="36"><desc>Cloud Database Streamline Icon: https://streamlinehq.com</desc><defs></defs><g id="roll_brush"><path d="M26.26875 16.875h-1.40625v-2.6999999999999997A8.0859375 8.0859375 0 0 0 16.875 6.0890625h-0.2953125a8.0015625 8.0015625 0 0 0 -6.778125 4.21875 3.0234375 3.0234375 0 0 0 -0.19687500000000002 0.36562500000000003 9.3234375 9.3234375 0 0 0 -0.7875000000000001 3.54375 6.721875000000001 6.721875000000001 0 0 0 -6.75 6.75 1.9828124999999999 1.9828124999999999 0 0 0 0 0.28125 6.75 6.75 0 0 0 6.7359375 6.4546874999999995h17.465625a5.371875 5.371875 0 0 0 5.371875 -5.034375 3.0515624999999997 3.0515624999999997 0 0 0 0 -0.36562500000000003A5.371875 5.371875 0 0 0 26.26875 16.875Z" fill="none" stroke="#000000" stroke-miterlimit="10" stroke-width="2.25"></path></g></svg>