<svg id="Cloudy-Night--Streamline-Atlas.svg" xmlns="http://www.w3.org/2000/svg" viewBox="-1.125 -1.125 36 36" height="36" width="36"><desc>Cloudy Night Streamline Icon: https://streamlinehq.com</desc><defs></defs><path d="M21.5859375 22.2609375h-0.8015625a7.03125 7.03125 0 0 0 0.1265625 -1.3359375 6.7359375 6.7359375 0 1 0 -13.471875 0 5.3859375 5.3859375 0 1 0 0 10.771875h14.146875000000001a4.725 4.725 0 1 0 0 -9.4359375Z" fill="none" stroke="#000000" stroke-miterlimit="10" stroke-width="2.25"></path><path d="M20.9109375 20.8125a7.1859375000000005 7.1859375000000005 0 0 0 1.40625 0.1125 9.393749999999999 9.393749999999999 0 0 0 9.309375 -8.0015625 6.75 6.75 0 0 1 -10.659375 -5.484375 6.7921875 6.7921875 0 0 1 2.5171875 -5.3015625 8.6484375 8.6484375 0 0 0 -1.2234375 -0.08437499999999999 9.421875 9.421875 0 0 0 -9.4359375 9.4359375 9.9140625 9.9140625 0 0 0 0.40781249999999997 2.8125" fill="none" stroke="#000000" stroke-miterlimit="10" stroke-width="2.25"></path></svg>