<svg id="Day-Cloudy--Streamline-Atlas.svg" xmlns="http://www.w3.org/2000/svg" viewBox="-1.125 -1.125 36 36" height="36" width="36"><desc>Day Cloudy Streamline Icon: https://streamlinehq.com</desc><defs></defs><path d="M26.254687500000003 23.5828125a4.640625 4.640625 0 0 0 -3.0656250000000003 -3.740625 4.021875 4.021875 0 0 0 -1.603125 -0.2953125h-0.8015625a7.2140625 7.2140625 0 0 0 0.140625 -1.40625 6.7359375 6.7359375 0 0 0 -6.75 -6.7359375 7.7203125 7.7203125 0 0 0 -0.8156249999999999 0 6.75 6.75 0 0 0 -5.9203125 6.69375 5.371875 5.371875 0 0 0 -5.3859375 5.3859375" fill="none" stroke="#000000" stroke-miterlimit="10" stroke-width="2.25"></path><path d="M23.1890625 19.842187499999998a6.75 6.75 0 1 0 -9.84375 -8.339062499999999" fill="none" stroke="#000000" stroke-miterlimit="10" stroke-width="2.25"></path><path d="m19.575 0.6749999999999999 0 2.6999999999999997" fill="none" stroke="#000000" stroke-miterlimit="10" stroke-width="2.25"></path><path d="m33.046875 14.146875000000001 -2.6999999999999997 0" fill="none" stroke="#000000" stroke-miterlimit="10" stroke-width="2.25"></path><path d="m29.095312500000002 4.6265625 -1.8984375000000002 1.8984375000000002" fill="none" stroke="#000000" stroke-miterlimit="10" stroke-width="2.25"></path><path d="M11.953125 6.5249999999999995 10.040625 4.6265625" fill="none" stroke="#000000" stroke-miterlimit="10" stroke-width="2.25"></path><path d="m0.703125 26.282812500000002 6.7359375 0" fill="none" stroke="#000000" stroke-miterlimit="10" stroke-width="2.25"></path><path d="m10.1390625 26.282812500000002 13.471875 0" fill="none" stroke="#000000" stroke-miterlimit="10" stroke-width="2.25"></path><path d="m3.4031249999999997 31.66875 10.771875 0" fill="none" stroke="#000000" stroke-miterlimit="10" stroke-width="2.25"></path><path d="m16.875 31.66875 13.471875 0" fill="none" stroke="#000000" stroke-miterlimit="10" stroke-width="2.25"></path><path d="m26.3109375 26.282812500000002 6.7359375 0" fill="none" stroke="#000000" stroke-miterlimit="10" stroke-width="2.25"></path></svg>