<svg id="Hail--Streamline-Atlas.svg" xmlns="http://www.w3.org/2000/svg" viewBox="-1.125 -1.125 36 36" height="36" width="36"><desc>Hail Streamline Icon: https://streamlinehq.com</desc><defs></defs><path d="M31.640625 17.55a6.0328125 6.0328125 0 0 0 -6.046875 -6.046875h-0.7875000000000001a8.4375 8.4375 0 0 0 0.1265625 -1.3359375 8.0578125 8.0578125 0 0 0 -16.115625 0 6.707812499999999 6.707812499999999 0 0 0 0 13.415624999999999H25.59375a6.0328125 6.0328125 0 0 0 6.046875 -6.0328125" fill="none" stroke="#000000" stroke-miterlimit="10" stroke-width="2.25"></path><path d="M6.1312500000000005 30.965625a0.6749999999999999 0.6749999999999999 0 1 0 1.3499999999999999 0 0.6749999999999999 0.6749999999999999 0 1 0 -1.3499999999999999 0" fill="none" stroke="#000000" stroke-miterlimit="10" stroke-width="2.25"></path><path d="M12.8390625 28.279687499999998a0.6749999999999999 0.6749999999999999 0 1 0 1.3499999999999999 0 0.6749999999999999 0.6749999999999999 0 1 0 -1.3499999999999999 0" fill="none" stroke="#000000" stroke-miterlimit="10" stroke-width="2.25"></path><path d="M19.5609375 30.965625a0.6749999999999999 0.6749999999999999 0 1 0 1.3499999999999999 0 0.6749999999999999 0.6749999999999999 0 1 0 -1.3499999999999999 0" fill="none" stroke="#000000" stroke-miterlimit="10" stroke-width="2.25"></path><path d="M26.26875 28.279687499999998a0.6749999999999999 0.6749999999999999 0 1 0 1.3499999999999999 0 0.6749999999999999 0.6749999999999999 0 1 0 -1.3499999999999999 0" fill="none" stroke="#000000" stroke-miterlimit="10" stroke-width="2.25"></path></svg>