<svg id="Heavy-Rain--Streamline-Atlas.svg" xmlns="http://www.w3.org/2000/svg" viewBox="-1.125 -1.125 36 36" height="36" width="36"><desc>Heavy Rain Streamline Icon: https://streamlinehq.com</desc><defs></defs><path d="M7.48125 23.45625a6.707812499999999 6.707812499999999 0 0 1 1.3359375 -13.289062499999998 8.0578125 8.0578125 0 0 1 16.115625 0 8.4375 8.4375 0 0 1 -0.1265625 1.3359375h0.7875000000000001a6.0328125 6.0328125 0 0 1 0.6749999999999999 12.037500000000001" fill="none" stroke="#000000" stroke-miterlimit="10" stroke-width="2.25"></path><path d="m15.539062500000002 18.2109375 2.671875 0" fill="none" stroke="#000000" stroke-miterlimit="10" stroke-width="2.25"></path><path d="m15.539062500000002 23.5828125 2.671875 0" fill="none" stroke="#000000" stroke-miterlimit="10" stroke-width="2.25"></path><path d="m15.539062500000002 28.9546875 2.671875 0" fill="none" stroke="#000000" stroke-miterlimit="10" stroke-width="2.25"></path><path d="m20.896874999999998 20.896874999999998 2.6859375 0" fill="none" stroke="#000000" stroke-miterlimit="10" stroke-width="2.25"></path><path d="m20.896874999999998 26.26875 2.6859375 0" fill="none" stroke="#000000" stroke-miterlimit="10" stroke-width="2.25"></path><path d="m20.896874999999998 31.640625 2.6859375 0" fill="none" stroke="#000000" stroke-miterlimit="10" stroke-width="2.25"></path><path d="m10.1671875 20.896874999999998 2.6859375 0" fill="none" stroke="#000000" stroke-miterlimit="10" stroke-width="2.25"></path><path d="m10.1671875 26.26875 2.6859375 0" fill="none" stroke="#000000" stroke-miterlimit="10" stroke-width="2.25"></path><path d="m10.1671875 31.640625 2.6859375 0" fill="none" stroke="#000000" stroke-miterlimit="10" stroke-width="2.25"></path></svg>