<svg id="Lightening-Day--Streamline-Atlas.svg" xmlns="http://www.w3.org/2000/svg" viewBox="-1 -1 32 32" height="32" width="32"><desc>Lightening Day Streamline Icon: https://streamlinehq.com</desc><defs></defs><path d="M18.6125 25.674999999999997h0.6a4.1875 4.1875 0 1 0 0 -8.3625h-0.7124999999999999a7.5 7.5 0 0 0 0.11249999999999999 -1.25 5.9750000000000005 5.9750000000000005 0 0 0 -11.950000000000001 0 4.7875 4.7875 0 1 0 0 9.5625" fill="none" stroke="#000000" stroke-miterlimit="10" stroke-width="2"></path><path d="M20.637500000000003 17.575a5.9875 5.9875 0 1 0 -8.75 -7.3875" fill="none" stroke="#000000" stroke-miterlimit="10" stroke-width="2"></path><path d="m17.4125 0.5750000000000001 0 2.3874999999999997" fill="none" stroke="#000000" stroke-miterlimit="10" stroke-width="2"></path><path d="m29.375 12.524999999999999 -2.3874999999999997 0" fill="none" stroke="#000000" stroke-miterlimit="10" stroke-width="2"></path><path d="m25.875 4.074999999999999 -1.6875 1.6875" fill="none" stroke="#000000" stroke-miterlimit="10" stroke-width="2"></path><path d="M10.649999999999999 5.7625 8.9625 4.074999999999999" fill="none" stroke="#000000" stroke-miterlimit="10" stroke-width="2"></path><path d="m15.024999999999999 22.087500000000002 -2.3874999999999997 3.5875000000000004 0 -2.3874999999999997 -2.3874999999999997 0 2.3874999999999997 -3.5875000000000004 0 2.3874999999999997 2.3874999999999997 0z" fill="none" stroke="#000000" stroke-miterlimit="10" stroke-width="2"></path></svg>