<svg id="Lightening-Storm-Cloud--Streamline-Atlas.svg" xmlns="http://www.w3.org/2000/svg" viewBox="-1.125 -1.125 36 36" height="36" width="36"><desc>Lightening Storm Cloud Streamline Icon: https://streamlinehq.com</desc><defs></defs><path d="M21.5859375 26.254687500000003a4.725 4.725 0 1 0 0 -9.4359375h-0.8015625a7.03125 7.03125 0 0 0 0.1265625 -1.40625 6.7359375 6.7359375 0 0 0 -13.471875 0 5.3999999999999995 5.3999999999999995 0 1 0 0 10.7859375" fill="none" stroke="#000000" stroke-miterlimit="10" stroke-width="2.25"></path><path d="M15.6234375 8.8734375a8.04375 8.04375 0 0 1 7.9734375 -6.8765624999999995 6.4265625 6.4265625 0 0 1 1.0546875 0.0703125A5.765624999999999 5.765624999999999 0 0 0 31.5703125 11.25a8.015625 8.015625 0 0 1 -6.8062499999999995 6.75" fill="none" stroke="#000000" stroke-miterlimit="10" stroke-width="2.25"></path><path d="m16.875 24.9046875 -2.6999999999999997 4.05 0 -2.6999999999999997 -2.6999999999999997 0 2.6999999999999997 -4.05 0 2.6999999999999997 2.6999999999999997 0z" fill="none" stroke="#000000" stroke-miterlimit="10" stroke-width="2.25"></path></svg>