<svg id="Lightening-Cloud-Rain--Streamline-Atlas.svg" xmlns="http://www.w3.org/2000/svg" viewBox="-1.125 -1.125 36 36" height="36" width="36"><desc>Lightening Cloud Rain Streamline Icon: https://streamlinehq.com</desc><defs></defs><path d="M3.4453125000000004 20.8828125A6.609375 6.609375 0 0 1 2.109375 16.875a6.721875000000001 6.721875000000001 0 0 1 6.707812499999999 -6.707812499999999 8.0578125 8.0578125 0 0 1 16.115625 0 8.4375 8.4375 0 0 1 -0.1265625 1.3359375h0.7875000000000001a6.0328125 6.0328125 0 0 1 6.046875 6.046875 6.117187499999999 6.117187499999999 0 0 1 -1.3359375 3.8109375" fill="none" stroke="#000000" stroke-miterlimit="10" stroke-width="2.25"></path><path d="m10.1671875 23.5828125 -2.6859375 4.0359375 0 -2.6859375 -2.6859375 0 2.6859375 -4.0359375 0 2.6859375 2.6859375 0z" fill="none" stroke="#000000" stroke-miterlimit="10" stroke-width="2.25"></path><path d="m26.26875 20.896874999999998 0 5.371875" fill="none" stroke="#000000" stroke-miterlimit="10" stroke-width="2.25"></path><path d="m26.26875 28.9546875 0 2.6859375" fill="none" stroke="#000000" stroke-miterlimit="10" stroke-width="2.25"></path><path d="m20.896874999999998 18.2109375 0 5.371875" fill="none" stroke="#000000" stroke-miterlimit="10" stroke-width="2.25"></path><path d="m20.896874999999998 26.26875 0 2.6859375" fill="none" stroke="#000000" stroke-miterlimit="10" stroke-width="2.25"></path><path d="m15.539062500000002 20.896874999999998 0 5.371875" fill="none" stroke="#000000" stroke-miterlimit="10" stroke-width="2.25"></path><path d="m15.539062500000002 28.9546875 0 2.6859375" fill="none" stroke="#000000" stroke-miterlimit="10" stroke-width="2.25"></path></svg>