<svg id="Medium-Thermometer--Streamline-Atlas.svg" xmlns="http://www.w3.org/2000/svg" viewBox="-1.125 -1.125 36 36" height="36" width="36"><desc>Medium Thermometer Streamline Icon: https://streamlinehq.com</desc><defs></defs><path d="M14.2875 24.609375a1.29375 1.29375 0 1 0 2.5875 0 1.29375 1.29375 0 1 0 -2.5875 0" fill="none" stroke="#000000" stroke-miterlimit="10" stroke-width="2.25"></path><path d="M20.7421875 20.784375v-12.937499999999998a5.1609375 5.1609375 0 0 0 -10.3078125 0v12.937499999999998a6.370312500000001 6.370312500000001 0 0 0 -1.29375 3.825 6.4546874999999995 6.4546874999999995 0 0 0 12.8953125 0 6.370312500000001 6.370312500000001 0 0 0 -1.29375 -3.825Z" fill="none" stroke="#000000" stroke-miterlimit="10" stroke-width="2.25"></path><path d="m15.58125 14.3015625 0 9.0140625" fill="none" stroke="#000000" stroke-miterlimit="10" stroke-width="2.25"></path><path d="m20.7421875 9.140625 3.8671875 0" fill="none" stroke="#000000" stroke-miterlimit="10" stroke-width="2.25"></path><path d="m20.7421875 14.3015625 3.8671875 0" fill="none" stroke="#000000" stroke-miterlimit="10" stroke-width="2.25"></path><path d="m20.7421875 19.4484375 3.8671875 0" fill="none" stroke="#000000" stroke-miterlimit="10" stroke-width="2.25"></path></svg>