<svg id="Misty-Cloud--Streamline-Atlas.svg" xmlns="http://www.w3.org/2000/svg" viewBox="-1.125 -1.125 36 36" height="36" width="36"><desc>Misty Cloud Streamline Icon: https://streamlinehq.com</desc><defs></defs><path d="M27.618750000000002 23.23125a6.0328125 6.0328125 0 0 0 -2.025 -11.728125h-0.7875000000000001a8.4375 8.4375 0 0 0 0.1265625 -1.3359375 8.0578125 8.0578125 0 0 0 -16.115625 0 6.721875000000001 6.721875000000001 0 0 0 -2.6859375 12.8671875" fill="none" stroke="#000000" stroke-miterlimit="10" stroke-width="2.25"></path><path d="M7.4671875 26.26875c2.3484374999999997 0 2.3484374999999997 -1.3359375 4.6968749999999995 -1.3359375s2.3484374999999997 1.3359375 4.6968749999999995 1.3359375 2.3484374999999997 -1.3359375 4.6968749999999995 -1.3359375 2.3625 1.3359375 4.7109375 1.3359375" fill="none" stroke="#000000" stroke-miterlimit="10" stroke-width="2.25"></path><path d="M7.4671875 31.640625c2.3484374999999997 0 2.3484374999999997 -1.3359375 4.6968749999999995 -1.3359375s2.3484374999999997 1.3359375 4.6968749999999995 1.3359375 2.3484374999999997 -1.3359375 4.6968749999999995 -1.3359375 2.3625 1.3359375 4.7109375 1.3359375" fill="none" stroke="#000000" stroke-miterlimit="10" stroke-width="2.25"></path></svg>