<svg id="Night-Cloudy--Streamline-Atlas.svg" xmlns="http://www.w3.org/2000/svg" viewBox="-1.125 -1.125 36 36" height="36" width="36"><desc>Night Cloudy Streamline Icon: https://streamlinehq.com</desc><defs></defs><path d="M26.254687500000003 22.2609375a4.6546875 4.6546875 0 0 0 -3.0656250000000003 -3.740625 4.21875 4.21875 0 0 0 -1.603125 -0.2390625h-0.8015625a7.03125 7.03125 0 0 0 0.140625 -1.40625 6.7359375 6.7359375 0 0 0 -6.75 -6.7359375 5.1890625 5.1890625 0 0 0 -0.8156249999999999 0A6.7359375 6.7359375 0 0 0 7.4390625 16.875a5.3859375 5.3859375 0 0 0 -5.3859375 5.3859375" fill="none" stroke="#000000" stroke-miterlimit="10" stroke-width="2.25"></path><path d="m0.703125 24.9609375 6.7359375 0" fill="none" stroke="#000000" stroke-miterlimit="10" stroke-width="2.25"></path><path d="m10.1390625 24.9609375 13.471875 0" fill="none" stroke="#000000" stroke-miterlimit="10" stroke-width="2.25"></path><path d="m3.4031249999999997 30.346874999999997 10.771875 0" fill="none" stroke="#000000" stroke-miterlimit="10" stroke-width="2.25"></path><path d="m16.875 30.346874999999997 13.471875 0" fill="none" stroke="#000000" stroke-miterlimit="10" stroke-width="2.25"></path><path d="m26.3109375 24.9609375 6.7359375 0" fill="none" stroke="#000000" stroke-miterlimit="10" stroke-width="2.25"></path><path d="M15.6234375 10.2796875a8.04375 8.04375 0 0 1 7.9734375 -6.8765624999999995 8.4375 8.4375 0 0 1 1.0546875 0.0703125A5.7796875000000005 5.7796875000000005 0 0 0 31.584375 12.65625a8.04375 8.04375 0 0 1 -6.820312499999999 6.75" fill="none" stroke="#000000" stroke-miterlimit="10" stroke-width="2.25"></path></svg>