<svg id="Partly-Cloudy-Rain--Streamline-Atlas.svg" xmlns="http://www.w3.org/2000/svg" viewBox="-1.125 -1.125 36 36" height="36" width="36"><desc>Partly Cloudy Rain Streamline Icon: https://streamlinehq.com</desc><defs></defs><path d="M16.875 28.9546875h4.7109375a4.7109375 4.7109375 0 1 0 0 -9.421875h-0.7734375000000001a8.296875 8.296875 0 0 0 0.1265625 -1.40625 6.721875000000001 6.721875000000001 0 0 0 -13.443750000000001 0 5.3859375 5.3859375 0 0 0 0 10.771875H11.531249999999998" fill="none" stroke="#000000" stroke-miterlimit="10" stroke-width="2.25"></path><path d="M23.2171875 19.828125a6.7359375 6.7359375 0 1 0 -9.84375 -8.3109375" fill="none" stroke="#000000" stroke-miterlimit="10" stroke-width="2.25"></path><path d="m19.5890625 0.703125 0 2.6859375" fill="none" stroke="#000000" stroke-miterlimit="10" stroke-width="2.25"></path><path d="m33.046875 14.160937500000001 -2.6859375 0" fill="none" stroke="#000000" stroke-miterlimit="10" stroke-width="2.25"></path><path d="m29.109375 4.640625 -1.8984375000000002 1.8984375000000002" fill="none" stroke="#000000" stroke-miterlimit="10" stroke-width="2.25"></path><path d="M11.98125 6.539062500000001 10.0828125 4.640625" fill="none" stroke="#000000" stroke-miterlimit="10" stroke-width="2.25"></path><path d="M16.875 28.9546875a2.6859375 2.6859375 0 1 1 -5.371875 0c0 -2.6999999999999997 2.6859375 -5.3859375 2.6859375 -5.3859375S16.875 26.254687500000003 16.875 28.9546875Z" fill="none" stroke="#000000" stroke-miterlimit="10" stroke-width="2.25"></path></svg>