<svg id="Raining-Day--Streamline-Atlas.svg" xmlns="http://www.w3.org/2000/svg" viewBox="-1.125 -1.125 36 36" height="36" width="36"><desc>Raining Day Streamline Icon: https://streamlinehq.com</desc><defs></defs><path d="M20.939062500000002 28.982812499999998h0.6749999999999999a4.7109375 4.7109375 0 0 0 0 -9.421875h-0.8015625a8.26875 8.26875 0 0 0 0.1265625 -1.3359375 6.721875000000001 6.721875000000001 0 1 0 -13.443750000000001 0 5.3859375 5.3859375 0 1 0 0 10.7578125" fill="none" stroke="#000000" stroke-miterlimit="10" stroke-width="2.25"></path><path d="M23.2171875 19.85625a6.7359375 6.7359375 0 1 0 -9.84375 -8.3109375" fill="none" stroke="#000000" stroke-miterlimit="10" stroke-width="2.25"></path><path d="m19.5890625 0.7312500000000001 0 2.6859375" fill="none" stroke="#000000" stroke-miterlimit="10" stroke-width="2.25"></path><path d="m33.046875 14.1890625 -2.6859375 0" fill="none" stroke="#000000" stroke-miterlimit="10" stroke-width="2.25"></path><path d="m29.109375 4.66875 -1.8984375000000002 1.9125" fill="none" stroke="#000000" stroke-miterlimit="10" stroke-width="2.25"></path><path d="M11.98125 6.58125 10.0828125 4.66875" fill="none" stroke="#000000" stroke-miterlimit="10" stroke-width="2.25"></path><path d="m10.18125 31.66875 0 -6.721875000000001" fill="none" stroke="#000000" stroke-miterlimit="10" stroke-width="2.25"></path><path d="m14.2171875 33.01875 0 -6.721875000000001" fill="none" stroke="#000000" stroke-miterlimit="10" stroke-width="2.25"></path><path d="m18.253125 31.66875 0 -6.721875000000001" fill="none" stroke="#000000" stroke-miterlimit="10" stroke-width="2.25"></path></svg>