<svg id="Rain-Drop-Sun--Streamline-Atlas.svg" xmlns="http://www.w3.org/2000/svg" viewBox="-1 -1 32 32" height="32" width="32"><desc>Rain Drop Sun Streamline Icon: https://streamlinehq.com</desc><defs></defs><path d="m15 0.625 0 2.4" fill="none" stroke="#000000" stroke-miterlimit="10" stroke-width="2"></path><path d="m15 26.974999999999998 0 2.4" fill="none" stroke="#000000" stroke-miterlimit="10" stroke-width="2"></path><path d="m29.375 15 -2.4 0" fill="none" stroke="#000000" stroke-miterlimit="10" stroke-width="2"></path><path d="M3.025 15 0.625 15" fill="none" stroke="#000000" stroke-miterlimit="10" stroke-width="2"></path><path d="m15 0.625 0 2.4" fill="none" stroke="#000000" stroke-miterlimit="10" stroke-width="2"></path><path d="m15 26.974999999999998 0 2.4" fill="none" stroke="#000000" stroke-miterlimit="10" stroke-width="2"></path><path d="m29.375 15 -2.4 0" fill="none" stroke="#000000" stroke-miterlimit="10" stroke-width="2"></path><path d="M3.025 15 0.625 15" fill="none" stroke="#000000" stroke-miterlimit="10" stroke-width="2"></path><path d="m25.162499999999998 4.8375 -1.6875 1.6875" fill="none" stroke="#000000" stroke-miterlimit="10" stroke-width="2"></path><path d="m6.5249999999999995 23.475 -1.6875 1.6875" fill="none" stroke="#000000" stroke-miterlimit="10" stroke-width="2"></path><path d="M6.5249999999999995 6.5249999999999995 4.8375 4.8375" fill="none" stroke="#000000" stroke-miterlimit="10" stroke-width="2"></path><path d="m25.162499999999998 4.8375 -1.6875 1.6875" fill="none" stroke="#000000" stroke-miterlimit="10" stroke-width="2"></path><path d="m6.5249999999999995 23.475 -1.6875 1.6875" fill="none" stroke="#000000" stroke-miterlimit="10" stroke-width="2"></path><path d="M6.5249999999999995 6.5249999999999995 4.8375 4.8375" fill="none" stroke="#000000" stroke-miterlimit="10" stroke-width="2"></path><path d="M23.112499999999997 17.125a8.5375 8.5375 0 0 0 0.275 -2.125A8.3875 8.3875 0 1 0 15 23.387500000000003a8.225 8.225 0 0 0 5.1625 -1.7999999999999998" fill="none" stroke="#000000" stroke-miterlimit="10" stroke-width="2"></path><path d="M28.5 23.825a4.362500000000001 4.362500000000001 0 0 1 -8.75 0c0 -4.362500000000001 4.362500000000001 -7.625 4.362500000000001 -7.625s4.387499999999999 3.2624999999999997 4.387499999999999 7.625Z" fill="none" stroke="#000000" stroke-miterlimit="10" stroke-width="2"></path></svg>