<svg id="Rain-Storm--Streamline-Atlas.svg" xmlns="http://www.w3.org/2000/svg" viewBox="-1.125 -1.125 36 36" height="36" width="36"><desc>Rain Storm Streamline Icon: https://streamlinehq.com</desc><defs></defs><path d="M28.9546875 26.71875a6.0328125 6.0328125 0 0 0 -3.3609375000000004 -11.053125h-0.7875000000000001a8.60625 8.60625 0 0 0 0.1265625 -1.40625 8.0578125 8.0578125 0 0 0 -16.115625 0 6.707812499999999 6.707812499999999 0 0 0 -4.021875 12.0796875" fill="none" stroke="#000000" stroke-miterlimit="10" stroke-width="2.25"></path><path d="m8.8171875 22.3734375 0 4.021875" fill="none" stroke="#000000" stroke-miterlimit="10" stroke-width="2.25"></path><path d="m8.8171875 29.08125 0 4.0359375" fill="none" stroke="#000000" stroke-miterlimit="10" stroke-width="2.25"></path><path d="m14.1890625 19.6875 0 4.021875" fill="none" stroke="#000000" stroke-miterlimit="10" stroke-width="2.25"></path><path d="m14.1890625 26.3953125 0 4.0359375" fill="none" stroke="#000000" stroke-miterlimit="10" stroke-width="2.25"></path><path d="m19.5609375 22.3734375 0 4.021875" fill="none" stroke="#000000" stroke-miterlimit="10" stroke-width="2.25"></path><path d="m19.5609375 29.08125 0 4.0359375" fill="none" stroke="#000000" stroke-miterlimit="10" stroke-width="2.25"></path><path d="m24.9328125 19.6875 0 4.021875" fill="none" stroke="#000000" stroke-miterlimit="10" stroke-width="2.25"></path><path d="m24.9328125 26.3953125 0 4.0359375" fill="none" stroke="#000000" stroke-miterlimit="10" stroke-width="2.25"></path></svg>