<svg id="Raining-Night--Streamline-Atlas.svg" xmlns="http://www.w3.org/2000/svg" viewBox="-1.125 -1.125 36 36" height="36" width="36"><desc>Raining Night Streamline Icon: https://streamlinehq.com</desc><defs></defs><path d="M15.6234375 8.971875a8.0578125 8.0578125 0 0 1 7.9734375 -6.890625000000001 6.4125 6.4125 0 0 1 1.0546875 0.08437499999999999 5.765624999999999 5.765624999999999 0 0 0 6.91875 9.225 8.015625 8.015625 0 0 1 -6.8062499999999995 6.75" fill="none" stroke="#000000" stroke-miterlimit="10" stroke-width="2.25"></path><path d="M20.9109375 26.3390625h0.6749999999999999a4.725 4.725 0 1 0 0 -9.4359375h-0.8015625a7.03125 7.03125 0 0 0 0.1265625 -1.40625 6.7359375 6.7359375 0 1 0 -13.471875 0 5.3999999999999995 5.3999999999999995 0 1 0 0 10.7859375" fill="none" stroke="#000000" stroke-miterlimit="10" stroke-width="2.25"></path><path d="m10.1390625 31.724999999999998 0 -6.7359375" fill="none" stroke="#000000" stroke-miterlimit="10" stroke-width="2.25"></path><path d="m14.175 33.075 0 -6.7359375" fill="none" stroke="#000000" stroke-miterlimit="10" stroke-width="2.25"></path><path d="m18.225 31.724999999999998 0 -6.7359375" fill="none" stroke="#000000" stroke-miterlimit="10" stroke-width="2.25"></path></svg>