<svg id="Snow-Cloud--Streamline-Atlas.svg" xmlns="http://www.w3.org/2000/svg" viewBox="-1.125 -1.125 36 36" height="36" width="36"><desc>Snow Cloud Streamline Icon: https://streamlinehq.com</desc><defs></defs><path d="M27.618750000000002 11.503124999999999h-0.253125a3.8812499999999996 3.8812499999999996 0 0 0 0.253125 -1.3359375 4.05 4.05 0 0 0 -4.0359375 -4.0359375 3.5296874999999996 3.5296874999999996 0 0 0 -0.7734375000000001 0.08437499999999999A7.36875 7.36875 0 0 0 8.859375 8.8171875h-1.40625a5.371875 5.371875 0 0 0 0 10.74375h20.165625a4.0359375 4.0359375 0 0 0 0 -8.0578125Z" fill="none" stroke="#000000" stroke-miterlimit="10" stroke-width="2.25"></path><path d="M2.109375 28.9546875a2.6859375 2.6859375 0 1 0 5.371875 0 2.6859375 2.6859375 0 1 0 -5.371875 0" fill="none" stroke="#000000" stroke-miterlimit="10" stroke-width="2.25"></path><path d="M18.2109375 28.9546875a2.6859375 2.6859375 0 1 0 5.371875 0 2.6859375 2.6859375 0 1 0 -5.371875 0" fill="none" stroke="#000000" stroke-miterlimit="10" stroke-width="2.25"></path><path d="M11.517187499999999 24.9328125a1.3359375 1.3359375 0 1 0 2.671875 0 1.3359375 1.3359375 0 1 0 -2.671875 0" fill="none" stroke="#000000" stroke-miterlimit="10" stroke-width="2.25"></path><path d="M27.618750000000002 24.9328125a1.3359375 1.3359375 0 1 0 2.671875 0 1.3359375 1.3359375 0 1 0 -2.671875 0" fill="none" stroke="#000000" stroke-miterlimit="10" stroke-width="2.25"></path></svg>