<svg id="Strong-Wind-Cloud-Day--Streamline-Atlas.svg" xmlns="http://www.w3.org/2000/svg" viewBox="-1 -1 32 32" height="32" width="32"><desc>Strong Wind Cloud Day Streamline Icon: https://streamlinehq.com</desc><defs></defs><path d="M1.825 20.987499999999997A4.7749999999999995 4.7749999999999995 0 0 1 6.6125 16.25a6 6 0 0 1 11.9875 0 6.4125 6.4125 0 0 1 -0.125 1.25h0.7124999999999999a4.175 4.175 0 0 1 1.7999999999999998 7.9625" fill="none" stroke="#000000" stroke-miterlimit="10" stroke-width="2"></path><path d="M20.612499999999997 17.6625a6 6 0 1 0 -8.75 -7.4" fill="none" stroke="#000000" stroke-miterlimit="10" stroke-width="2"></path><path d="m17.4 0.625 0 2.4" fill="none" stroke="#000000" stroke-miterlimit="10" stroke-width="2"></path><path d="m29.375 12.6 -2.4 0" fill="none" stroke="#000000" stroke-miterlimit="10" stroke-width="2"></path><path d="m25.8625 4.1375 -1.6875 1.6875" fill="none" stroke="#000000" stroke-miterlimit="10" stroke-width="2"></path><path d="M10.625 5.825 8.924999999999999 4.1375" fill="none" stroke="#000000" stroke-miterlimit="10" stroke-width="2"></path><path d="M15 26.974999999999998a2.4 2.4 0 0 1 2.4 2.4" fill="none" stroke="#000000" stroke-miterlimit="10" stroke-width="2"></path><path d="m4.225 26.974999999999998 10.774999999999999 0" fill="none" stroke="#000000" stroke-miterlimit="10" stroke-width="2"></path><path d="M9.0125 20.987499999999997a2.4 2.4 0 1 1 2.3874999999999997 2.4H0.625" fill="none" stroke="#000000" stroke-miterlimit="10" stroke-width="2"></path></svg>