<svg id="Strong-Wind-Cloud-Night--Streamline-Atlas.svg" xmlns="http://www.w3.org/2000/svg" viewBox="-1.125 -1.125 36 36" height="36" width="36"><desc>Strong Wind Cloud Night Streamline Icon: https://streamlinehq.com</desc><defs></defs><path d="M1.996875 22.303124999999998A5.3859375 5.3859375 0 0 1 7.396875 16.875a6.75 6.75 0 1 1 13.5 0 7.03125 7.03125 0 0 1 -0.140625 1.40625h0.8156249999999999a4.725 4.725 0 0 1 2.025 8.9859375" fill="none" stroke="#000000" stroke-miterlimit="10" stroke-width="2.25"></path><path d="M16.875 29.053125a2.6999999999999997 2.6999999999999997 0 0 1 2.6999999999999997 2.6999999999999997" fill="none" stroke="#000000" stroke-miterlimit="10" stroke-width="2.25"></path><path d="m4.6968749999999995 29.053125 12.15 0" fill="none" stroke="#000000" stroke-miterlimit="10" stroke-width="2.25"></path><path d="M10.096874999999999 22.303124999999998a2.6999999999999997 2.6999999999999997 0 1 1 2.6999999999999997 2.6999999999999997H0.6328125" fill="none" stroke="#000000" stroke-miterlimit="10" stroke-width="2.25"></path><path d="M15.5953125 10.293750000000001a8.071875 8.071875 0 0 1 7.9875 -6.890625000000001 8.4375 8.4375 0 0 1 1.0546875 0.0703125 5.7796875000000005 5.7796875000000005 0 0 0 6.9328125 9.253125 8.0296875 8.0296875 0 0 1 -6.820312499999999 6.7640625" fill="none" stroke="#000000" stroke-miterlimit="10" stroke-width="2.25"></path></svg>