<svg id="Strong-Raining-Day--Streamline-Atlas.svg" xmlns="http://www.w3.org/2000/svg" viewBox="-1 -1 32 32" height="32" width="32"><desc>Strong Raining Day Streamline Icon: https://streamlinehq.com</desc><defs></defs><path d="M4.2625 25.0875a4.7875 4.7875 0 0 1 2.4 -8.924999999999999 5.9750000000000005 5.9750000000000005 0 0 1 11.950000000000001 0 7.375 7.375 0 0 1 -0.11249999999999999 1.25h0.7124999999999999a4.175 4.175 0 0 1 1.7874999999999999 7.95" fill="none" stroke="#000000" stroke-miterlimit="10" stroke-width="2"></path><path d="M13.2375 22.15 10.25 28.125" fill="none" stroke="#000000" stroke-miterlimit="10" stroke-width="2"></path><path d="m18.0125 22.15 -2.9875000000000003 5.9750000000000005" fill="none" stroke="#000000" stroke-miterlimit="10" stroke-width="2"></path><path d="M8.475 22.1125 5.4625 28.125" fill="none" stroke="#000000" stroke-miterlimit="10" stroke-width="2"></path><path d="M20.637500000000003 17.625a5.9875 5.9875 0 1 0 -8.75 -7.3875" fill="none" stroke="#000000" stroke-miterlimit="10" stroke-width="2"></path><path d="m17.4125 0.625 0 2.3874999999999997" fill="none" stroke="#000000" stroke-miterlimit="10" stroke-width="2"></path><path d="m29.375 12.5875 -2.3874999999999997 0" fill="none" stroke="#000000" stroke-miterlimit="10" stroke-width="2"></path><path d="m25.875 4.125 -1.6875 1.6875" fill="none" stroke="#000000" stroke-miterlimit="10" stroke-width="2"></path><path d="M10.649999999999999 5.8125 8.9625 4.125" fill="none" stroke="#000000" stroke-miterlimit="10" stroke-width="2"></path></svg>