<svg id="Strong-Rain-Night--Streamline-Atlas.svg" xmlns="http://www.w3.org/2000/svg" viewBox="-1.125 -1.125 36 36" height="36" width="36"><desc>Strong Rain Night Streamline Icon: https://streamlinehq.com</desc><defs></defs><path d="M15.6234375 10.2796875a8.04375 8.04375 0 0 1 7.9734375 -6.8765624999999995 6.4265625 6.4265625 0 0 1 1.0546875 0.0703125A5.765624999999999 5.765624999999999 0 0 0 31.5703125 12.65625a8.015625 8.015625 0 0 1 -6.8062499999999995 6.75" fill="none" stroke="#000000" stroke-miterlimit="10" stroke-width="2.25"></path><path d="M4.7390625 26.929687499999996A5.3859375 5.3859375 0 0 1 7.4390625 16.875a6.7359375 6.7359375 0 0 1 13.471875 0 7.03125 7.03125 0 0 1 -0.1265625 1.40625h0.8015625a4.725 4.725 0 0 1 4.725 4.7109375 4.66875 4.66875 0 0 1 -2.6999999999999997 4.21875" fill="none" stroke="#000000" stroke-miterlimit="10" stroke-width="2.25"></path><path d="m14.850000000000001 23.6109375 -3.375 6.7359375" fill="none" stroke="#000000" stroke-miterlimit="10" stroke-width="2.25"></path><path d="M20.235937500000002 23.6109375 16.875 30.346874999999997" fill="none" stroke="#000000" stroke-miterlimit="10" stroke-width="2.25"></path><path d="m9.4921875 23.56875 -3.4031249999999997 6.778125" fill="none" stroke="#000000" stroke-miterlimit="10" stroke-width="2.25"></path></svg>