<svg id="Strong-Wind-Rain-Cloud--Streamline-Atlas.svg" xmlns="http://www.w3.org/2000/svg" viewBox="-1 -1 32 32" height="32" width="32"><desc>Strong Wind Rain Cloud Streamline Icon: https://streamlinehq.com</desc><defs></defs><path d="M0.625 18.6125h13.75a2.9875000000000003 2.9875000000000003 0 1 0 -2.9875000000000003 -2.9875000000000003" fill="none" stroke="#000000" stroke-miterlimit="10" stroke-width="2"></path><path d="M0.625 23.4h10.7625a2.3874999999999997 2.3874999999999997 0 1 1 -2.3874999999999997 2.3874999999999997" fill="none" stroke="#000000" stroke-miterlimit="10" stroke-width="2"></path><path d="M28.125 15.625a5.375 5.375 0 0 0 -5.375 -5.375h-0.7124999999999999a7.65 7.65 0 0 0 0.11249999999999999 -1.25 7.175000000000001 7.175000000000001 0 1 0 -14.350000000000001 0A5.9750000000000005 5.9750000000000005 0 0 0 1.825 15" fill="none" stroke="#000000" stroke-miterlimit="10" stroke-width="2"></path><path d="m28.125 19.8125 0 4.7749999999999995" fill="none" stroke="#000000" stroke-miterlimit="10" stroke-width="2"></path><path d="m28.125 26.9875 0 2.3874999999999997" fill="none" stroke="#000000" stroke-miterlimit="10" stroke-width="2"></path><path d="m23.337500000000002 17.4125 0 4.7875" fill="none" stroke="#000000" stroke-miterlimit="10" stroke-width="2"></path><path d="m23.337500000000002 24.587500000000002 0 2.4" fill="none" stroke="#000000" stroke-miterlimit="10" stroke-width="2"></path><path d="m18.5625 19.8125 0 4.7749999999999995" fill="none" stroke="#000000" stroke-miterlimit="10" stroke-width="2"></path><path d="m18.5625 26.9875 0 2.3874999999999997" fill="none" stroke="#000000" stroke-miterlimit="10" stroke-width="2"></path></svg>