<svg id="Thermometer-Alert--Streamline-Atlas.svg" xmlns="http://www.w3.org/2000/svg" viewBox="-1.125 -1.125 36 36" height="36" width="36"><desc>Thermometer Alert Streamline Icon: https://streamlinehq.com</desc><defs></defs><path d="M11.503124999999999 22.753125V6.1312500000000005a4.0359375 4.0359375 0 0 0 -8.0578125 0v16.621875a5.3578125 5.3578125 0 1 0 9.4078125 3.515625 5.3015625 5.3015625 0 0 0 -1.3499999999999999 -3.515625Z" fill="none" stroke="#000000" stroke-miterlimit="10" stroke-width="2.25"></path><path d="M6.1453125 26.26875a1.3359375 1.3359375 0 1 0 2.671875 0 1.3359375 1.3359375 0 1 0 -2.671875 0" fill="none" stroke="#000000" stroke-miterlimit="10" stroke-width="2.25"></path><path d="M7.48125 8.8171875v16.115625" fill="none" stroke="#000000" stroke-miterlimit="10" stroke-width="2.25"></path><path d="M15.524999999999999 10.1671875a8.0578125 8.0578125 0 1 0 16.115625 0 8.0578125 8.0578125 0 1 0 -16.115625 0" fill="none" stroke="#000000" stroke-miterlimit="10" stroke-width="2.25"></path><path d="m23.5828125 4.7953125000000005 0 6.707812499999999" fill="none" stroke="#000000" stroke-miterlimit="10" stroke-width="2.25"></path><path d="m23.5828125 12.853125 0 2.6859375" fill="none" stroke="#000000" stroke-miterlimit="10" stroke-width="2.25"></path></svg>