<svg xmlns="http://www.w3.org/2000/svg" viewBox="-1.125 -1.125 36 36" id="Thermometer-Temp--Streamline-Atlas.svg" height="36" width="36"><desc>Thermometer Temp Streamline Icon: https://streamlinehq.com</desc><defs></defs><g id="thermometer"><path d="M7.48125 24.9328125a1.3359375 1.3359375 0 1 0 2.671875 0 1.3359375 1.3359375 0 1 0 -2.671875 0" fill="none" stroke="#000000" stroke-miterlimit="10" stroke-width="2.25"></path><path d="m14.90625 18.84375 -6.4828125000000005 6.4828125000000005" fill="none" stroke="#000000" stroke-miterlimit="10" stroke-width="2.25"></path><path d="m17.7609375 15.9890625 -1.8984375000000002 1.8984375000000002" fill="none" stroke="#000000" stroke-miterlimit="10" stroke-width="2.25"></path><path d="M31.640625 6.8484375a4.7390625 4.7390625 0 0 0 -8.1 -3.346875L8.8171875 18.28125a6.707812499999999 6.707812499999999 0 1 0 6.721875000000001 6.721875000000001L30.2484375 10.209375a4.753125 4.753125 0 0 0 1.3921875 -3.3609375000000004Z" fill="none" stroke="#000000" stroke-miterlimit="10" stroke-width="2.25"></path><path d="M20.896874999999998 14.1890625 23.5828125 16.875" fill="none" stroke="#000000" stroke-miterlimit="10" stroke-width="2.25"></path><path d="m23.5828125 11.503124999999999 2.6859375 2.6859375" fill="none" stroke="#000000" stroke-miterlimit="10" stroke-width="2.25"></path><path d="m26.26875 8.8171875 2.6859375 2.6859375" fill="none" stroke="#000000" stroke-miterlimit="10" stroke-width="2.25"></path></g></svg>