<svg id="Celcius--Streamline-Atlas.svg" xmlns="http://www.w3.org/2000/svg" viewBox="-1.125 -1.125 36 36" height="36" width="36"><desc>Celcius Streamline Icon: https://streamlinehq.com</desc><defs></defs><path d="M22.246875 5.4703125a0.6749999999999999 0.6749999999999999 0 1 0 1.3499999999999999 0 0.6749999999999999 0.6749999999999999 0 1 0 -1.3499999999999999 0" fill="none" stroke="#000000" stroke-miterlimit="10" stroke-width="2.25"></path><path d="M7.48125 24.9328125a1.3359375 1.3359375 0 1 0 2.671875 0 1.3359375 1.3359375 0 1 0 -2.671875 0" fill="none" stroke="#000000" stroke-miterlimit="10" stroke-width="2.25"></path><path d="M14.1890625 20.939062500000002V7.48125a5.371875 5.371875 0 0 0 -10.74375 0v13.457812500000001a6.707812499999999 6.707812499999999 0 1 0 12.09375 3.99375 6.665625 6.665625 0 0 0 -1.3499999999999999 -3.99375Z" fill="none" stroke="#000000" stroke-miterlimit="10" stroke-width="2.25"></path><path d="m8.8171875 14.1890625 0 9.393749999999999" fill="none" stroke="#000000" stroke-miterlimit="10" stroke-width="2.25"></path><path d="m14.1890625 8.8171875 4.021875 0" fill="none" stroke="#000000" stroke-miterlimit="10" stroke-width="2.25"></path><path d="m14.1890625 14.1890625 4.021875 0" fill="none" stroke="#000000" stroke-miterlimit="10" stroke-width="2.25"></path><path d="m14.1890625 19.5609375 4.021875 0" fill="none" stroke="#000000" stroke-miterlimit="10" stroke-width="2.25"></path><path d="M31.640625 14.1890625A2.671875 2.671875 0 0 1 28.9546875 16.875a2.6859375 2.6859375 0 0 1 -2.6859375 -2.6859375V10.1671875a2.6859375 2.6859375 0 0 1 2.6859375 -2.6859375 2.671875 2.671875 0 0 1 2.6859375 2.6859375" fill="none" stroke="#000000" stroke-miterlimit="10" stroke-width="2.25"></path></svg>