<svg id="Cold-Temperature-Thermometer--Streamline-Atlas.svg" xmlns="http://www.w3.org/2000/svg" viewBox="-1.125 -1.125 36 36" height="36" width="36"><desc>Cold Temperature Thermometer Streamline Icon: https://streamlinehq.com</desc><defs></defs><path d="M7.48125 24.9328125a1.3359375 1.3359375 0 1 0 2.671875 0 1.3359375 1.3359375 0 1 0 -2.671875 0" fill="none" stroke="#000000" stroke-miterlimit="10" stroke-width="2.25"></path><path d="M12.853125 19.5890625V6.1312500000000005A4.0359375 4.0359375 0 0 0 8.8171875 2.109375a4.021875 4.021875 0 0 0 -4.021875 4.021875v13.457812500000001a6.721875000000001 6.721875000000001 0 1 0 8.0578125 0Z" fill="none" stroke="#000000" stroke-miterlimit="10" stroke-width="2.25"></path><path d="m8.8171875 16.875 0 6.707812499999999" fill="none" stroke="#000000" stroke-miterlimit="10" stroke-width="2.25"></path><path d="m24.9328125 11.503124999999999 0 8.0578125" fill="none" stroke="#000000" stroke-miterlimit="10" stroke-width="2.25"></path><path d="m27.618750000000002 8.8171875 -2.6859375 2.6859375 -2.6859375 -2.6859375" fill="none" stroke="#000000" stroke-miterlimit="10" stroke-width="2.25"></path><path d="m22.246875 22.246875 2.6859375 -2.6859375 2.6859375 2.6859375" fill="none" stroke="#000000" stroke-miterlimit="10" stroke-width="2.25"></path><path d="m28.9546875 15.539062500000002 -8.0578125 0" fill="none" stroke="#000000" stroke-miterlimit="10" stroke-width="2.25"></path><path d="m31.640625 18.225 -2.6859375 -2.6999999999999997 2.6859375 -2.671875" fill="none" stroke="#000000" stroke-miterlimit="10" stroke-width="2.25"></path><path d="m18.225 12.853125 2.671875 2.671875 -2.671875 2.6999999999999997" fill="none" stroke="#000000" stroke-miterlimit="10" stroke-width="2.25"></path><path d="M23.596875 15.539062500000002a1.3359375 1.3359375 0 1 0 2.671875 0 1.3359375 1.3359375 0 1 0 -2.671875 0" fill="none" stroke="#000000" stroke-miterlimit="10" stroke-width="2.25"></path></svg>