<svg id="Cold-Temperature--Streamline-Atlas.svg" xmlns="http://www.w3.org/2000/svg" viewBox="-1.125 -1.125 36 36" height="36" width="36"><desc>Cold Temperature Streamline Icon: https://streamlinehq.com</desc><defs></defs><path d="M23.357812499999998 24.6375a1.3078125 1.3078125 0 1 0 2.615625 0 1.3078125 1.3078125 0 1 0 -2.615625 0" fill="none" stroke="#000000" stroke-miterlimit="10" stroke-width="2.25"></path><path d="M29.86875 20.7703125V7.706250000000001a5.2171875 5.2171875 0 1 0 -10.4203125 0v13.064062499999999a6.4125 6.4125 0 0 0 -1.3078125 3.8671875 6.5249999999999995 6.5249999999999995 0 1 0 13.0359375 0 6.4125 6.4125 0 0 0 -1.3078125 -3.8671875Z" fill="none" stroke="#000000" stroke-miterlimit="10" stroke-width="2.25"></path><path d="m24.665625 18.126562500000002 0 5.2171875" fill="none" stroke="#000000" stroke-miterlimit="10" stroke-width="2.25"></path><path d="m12.937499999999998 27.253124999999997 0 -10.434375" fill="none" stroke="#000000" stroke-miterlimit="10" stroke-width="2.25"></path><path d="m12.937499999999998 11.615625 0 -10.434375" fill="none" stroke="#000000" stroke-miterlimit="10" stroke-width="2.25"></path><path d="M16.846875 3.7968750000000004 12.937499999999998 7.706250000000001 9.028125 3.7968750000000004" fill="none" stroke="#000000" stroke-miterlimit="10" stroke-width="2.25"></path><path d="m9.028125 24.6375 3.909375 -3.909375 3.909375 3.909375" fill="none" stroke="#000000" stroke-miterlimit="10" stroke-width="2.25"></path><path d="m12.937499999999998 27.253124999999997 0 -10.434375" fill="none" stroke="#000000" stroke-miterlimit="10" stroke-width="2.25"></path><path d="m12.937499999999998 11.615625 0 -10.434375" fill="none" stroke="#000000" stroke-miterlimit="10" stroke-width="2.25"></path><path d="M16.846875 3.7968750000000004 12.937499999999998 7.706250000000001 9.028125 3.7968750000000004" fill="none" stroke="#000000" stroke-miterlimit="10" stroke-width="2.25"></path><path d="m9.028125 24.6375 3.909375 -3.909375 3.909375 3.909375" fill="none" stroke="#000000" stroke-miterlimit="10" stroke-width="2.25"></path><path d="m15.187500000000002 15.524999999999999 3.3890625 1.9546875 0.871875 0.50625" fill="none" stroke="#000000" stroke-miterlimit="10" stroke-width="2.25"></path><path d="m10.6734375 12.909374999999999 -9.028125 -5.203125" fill="none" stroke="#000000" stroke-miterlimit="10" stroke-width="2.25"></path><path d="m5.8640625 5.625 1.4203125 5.3296875 -5.3296875 1.434375" fill="none" stroke="#000000" stroke-miterlimit="10" stroke-width="2.25"></path><path d="m15.187500000000002 15.524999999999999 3.3890625 1.9546875 0.871875 0.50625" fill="none" stroke="#000000" stroke-miterlimit="10" stroke-width="2.25"></path><path d="m10.6734375 12.909374999999999 -9.028125 -5.203125" fill="none" stroke="#000000" stroke-miterlimit="10" stroke-width="2.25"></path><path d="m5.8640625 5.625 1.4203125 5.3296875 -5.3296875 1.434375" fill="none" stroke="#000000" stroke-miterlimit="10" stroke-width="2.25"></path><path d="m10.6734375 15.524999999999999 -9.028125 5.203125" fill="none" stroke="#000000" stroke-miterlimit="10" stroke-width="2.25"></path><path d="m15.187500000000002 12.909374999999999 3.3890625 -1.9546875 0.871875 -0.50625" fill="none" stroke="#000000" stroke-miterlimit="10" stroke-width="2.25"></path><path d="m5.8640625 22.8234375 1.4203125 -5.34375 -5.3296875 -1.434375" fill="none" stroke="#000000" stroke-miterlimit="10" stroke-width="2.25"></path><path d="m10.6734375 15.524999999999999 -9.028125 5.203125" fill="none" stroke="#000000" stroke-miterlimit="10" stroke-width="2.25"></path><path d="m15.187500000000002 12.909374999999999 3.3890625 -1.9546875 0.871875 -0.50625" fill="none" stroke="#000000" stroke-miterlimit="10" stroke-width="2.25"></path><path d="m5.8640625 22.8234375 1.4203125 -5.34375 -5.3296875 -1.434375" fill="none" stroke="#000000" stroke-miterlimit="10" stroke-width="2.25"></path><path d="M15.539062500000002 14.2171875A2.6015625 2.6015625 0 0 1 12.937499999999998 16.875a2.6296875 2.6296875 0 0 1 -2.2640625 -1.40625 2.6015625 2.6015625 0 0 1 0 -2.615625 2.615625 2.615625 0 0 1 4.5140625 0 2.6015625 2.6015625 0 0 1 0.3515625 1.3640625Z" fill="none" stroke="#000000" stroke-miterlimit="10" stroke-width="2.25"></path></svg>