<svg id="Fahrenheit--Streamline-Atlas.svg" xmlns="http://www.w3.org/2000/svg" viewBox="-1.125 -1.125 36 36" height="36" width="36"><desc>Fahrenheit Streamline Icon: https://streamlinehq.com</desc><defs></defs><path d="m33.046875 7.453125 -5.3859375 0 0 10.771875" fill="none" stroke="#000000" stroke-miterlimit="10" stroke-width="2.25"></path><path d="m31.696875 12.8390625 -4.0359375 0" fill="none" stroke="#000000" stroke-miterlimit="10" stroke-width="2.25"></path><path d="M22.2890625 5.4421875a0.6749999999999999 0.6749999999999999 0 1 0 1.3499999999999999 0 0.6749999999999999 0.6749999999999999 0 1 0 -1.3499999999999999 0" fill="none" stroke="#000000" stroke-miterlimit="10" stroke-width="2.25"></path><path d="M7.48125 24.946875a1.3499999999999999 1.3499999999999999 0 1 0 2.6999999999999997 0 1.3499999999999999 1.3499999999999999 0 1 0 -2.6999999999999997 0" fill="none" stroke="#000000" stroke-miterlimit="10" stroke-width="2.25"></path><path d="M14.2171875 20.953125V7.453125a5.3859375 5.3859375 0 0 0 -10.7578125 0v13.5a6.5671875 6.5671875 0 0 0 -1.40625 3.99375 6.7359375 6.7359375 0 1 0 12.1078125 -3.99375Z" fill="none" stroke="#000000" stroke-miterlimit="10" stroke-width="2.25"></path><path d="m8.83125 14.1890625 0 9.4078125" fill="none" stroke="#000000" stroke-miterlimit="10" stroke-width="2.25"></path><path d="m14.2171875 8.803125 4.0359375 0" fill="none" stroke="#000000" stroke-miterlimit="10" stroke-width="2.25"></path><path d="m14.2171875 14.1890625 4.0359375 0" fill="none" stroke="#000000" stroke-miterlimit="10" stroke-width="2.25"></path><path d="m14.2171875 19.5609375 4.0359375 0" fill="none" stroke="#000000" stroke-miterlimit="10" stroke-width="2.25"></path></svg>