<svg id="Hot-Temperature--Streamline-Atlas.svg" xmlns="http://www.w3.org/2000/svg" viewBox="-1 -1 32 32" height="32" width="32"><desc>Hot Temperature Streamline Icon: https://streamlinehq.com</desc><defs></defs><path d="M20.950000000000003 22.174999999999997a1.2 1.2 0 1 0 2.4 0 1.2 1.2 0 1 0 -2.4 0" fill="none" stroke="#000000" stroke-miterlimit="10" stroke-width="2"></path><path d="M26.924999999999997 18.625V6.625a4.7875 4.7875 0 0 0 -9.5625 0v12a5.925000000000001 5.925000000000001 0 0 0 -1.25 3.55 5.9875 5.9875 0 0 0 11.9625 0 5.8375 5.8375 0 0 0 -1.1500000000000001 -3.55Z" fill="none" stroke="#000000" stroke-miterlimit="10" stroke-width="2"></path><path d="m22.15 6.625 0 14.350000000000001" fill="none" stroke="#000000" stroke-miterlimit="10" stroke-width="2"></path><path d="m14.975000000000001 0.65 0 2.3874999999999997" fill="none" stroke="#000000" stroke-miterlimit="10" stroke-width="2"></path><path d="m14.975000000000001 26.9625 0 2.3874999999999997" fill="none" stroke="#000000" stroke-miterlimit="10" stroke-width="2"></path><path d="M3.0125 15 0.625 15" fill="none" stroke="#000000" stroke-miterlimit="10" stroke-width="2"></path><path d="m14.975000000000001 0.65 0 2.3874999999999997" fill="none" stroke="#000000" stroke-miterlimit="10" stroke-width="2"></path><path d="m14.975000000000001 26.9625 0 2.3874999999999997" fill="none" stroke="#000000" stroke-miterlimit="10" stroke-width="2"></path><path d="M3.0125 15 0.625 15" fill="none" stroke="#000000" stroke-miterlimit="10" stroke-width="2"></path><path d="m6.5125 23.450000000000003 -1.6875 1.7000000000000002" fill="none" stroke="#000000" stroke-miterlimit="10" stroke-width="2"></path><path d="M6.5125 6.550000000000001 4.825 4.85" fill="none" stroke="#000000" stroke-miterlimit="10" stroke-width="2"></path><path d="m6.5125 23.450000000000003 -1.6875 1.7000000000000002" fill="none" stroke="#000000" stroke-miterlimit="10" stroke-width="2"></path><path d="M6.5125 6.550000000000001 4.825 4.85" fill="none" stroke="#000000" stroke-miterlimit="10" stroke-width="2"></path><path d="M16.25 23.2625a7.4 7.4 0 0 1 -1.25 0.11249999999999999 8.375 8.375 0 0 1 0 -16.75 8.2875 8.2875 0 0 1 2.3874999999999997 0.35000000000000003" fill="none" stroke="#000000" stroke-miterlimit="10" stroke-width="2"></path></svg>