<svg id="Snowing--Streamline-Atlas.svg" xmlns="http://www.w3.org/2000/svg" viewBox="-1.125 -1.125 36 36" height="36" width="36"><desc>Snowing Streamline Icon: https://streamlinehq.com</desc><defs></defs><path d="M7.48125 23.484375a6.707812499999999 6.707812499999999 0 0 1 1.3359375 -13.289062499999998 8.0578125 8.0578125 0 0 1 16.115625 0 8.4375 8.4375 0 0 1 -0.1265625 1.3359375h0.7875000000000001a6.046875 6.046875 0 0 1 0.6749999999999999 12.051562500000001" fill="none" stroke="#000000" stroke-miterlimit="10" stroke-width="2.25"></path><path d="M14.1890625 23.625a2.6859375 2.6859375 0 1 0 5.371875 0 2.6859375 2.6859375 0 1 0 -5.371875 0" fill="none" stroke="#000000" stroke-miterlimit="10" stroke-width="2.25"></path><path d="m16.875 14.2171875 0 6.721875000000001" fill="none" stroke="#000000" stroke-miterlimit="10" stroke-width="2.25"></path><path d="m14.1890625 16.903125 5.371875 0" fill="none" stroke="#000000" stroke-miterlimit="10" stroke-width="2.25"></path><path d="m16.875 33.01875 0 -6.721875000000001" fill="none" stroke="#000000" stroke-miterlimit="10" stroke-width="2.25"></path><path d="m19.5609375 30.3328125 -5.371875 0" fill="none" stroke="#000000" stroke-miterlimit="10" stroke-width="2.25"></path><path d="m8.7328125 18.9140625 5.8218749999999995 3.3609375000000004" fill="none" stroke="#000000" stroke-miterlimit="10" stroke-width="2.25"></path><path d="m9.7171875 22.584374999999998 2.6859375 -4.640625" fill="none" stroke="#000000" stroke-miterlimit="10" stroke-width="2.25"></path><path d="m25.0171875 28.321875000000002 -5.8218749999999995 -3.3609375000000004" fill="none" stroke="#000000" stroke-miterlimit="10" stroke-width="2.25"></path><path d="m24.0328125 24.6515625 -2.6859375 4.6546875" fill="none" stroke="#000000" stroke-miterlimit="10" stroke-width="2.25"></path><path d="m25.0171875 18.9140625 -5.8218749999999995 3.3609375000000004" fill="none" stroke="#000000" stroke-miterlimit="10" stroke-width="2.25"></path><path d="m24.0328125 22.584374999999998 -2.6859375 -4.640625" fill="none" stroke="#000000" stroke-miterlimit="10" stroke-width="2.25"></path><path d="m8.7328125 28.321875000000002 5.8218749999999995 -3.3609375000000004" fill="none" stroke="#000000" stroke-miterlimit="10" stroke-width="2.25"></path><path d="m9.7171875 24.6515625 2.6859375 4.6546875" fill="none" stroke="#000000" stroke-miterlimit="10" stroke-width="2.25"></path></svg>