<svg id="Sunny--Streamline-Atlas.svg" xmlns="http://www.w3.org/2000/svg" viewBox="-1 -1 32 32" height="32" width="32"><desc>Sunny Streamline Icon: https://streamlinehq.com</desc><defs></defs><path d="m15 0.625 0 2.4" fill="none" stroke="#000000" stroke-miterlimit="10" stroke-width="2"></path><path d="m15 26.974999999999998 0 2.4" fill="none" stroke="#000000" stroke-miterlimit="10" stroke-width="2"></path><path d="m29.375 15 -2.4 0" fill="none" stroke="#000000" stroke-miterlimit="10" stroke-width="2"></path><path d="M3.025 15 0.625 15" fill="none" stroke="#000000" stroke-miterlimit="10" stroke-width="2"></path><path d="m15 0.625 0 2.4" fill="none" stroke="#000000" stroke-miterlimit="10" stroke-width="2"></path><path d="m15 26.974999999999998 0 2.4" fill="none" stroke="#000000" stroke-miterlimit="10" stroke-width="2"></path><path d="m29.375 15 -2.4 0" fill="none" stroke="#000000" stroke-miterlimit="10" stroke-width="2"></path><path d="M3.025 15 0.625 15" fill="none" stroke="#000000" stroke-miterlimit="10" stroke-width="2"></path><path d="m25.162499999999998 4.8375 -1.6875 1.6875" fill="none" stroke="#000000" stroke-miterlimit="10" stroke-width="2"></path><path d="m6.5249999999999995 23.475 -1.6875 1.6875" fill="none" stroke="#000000" stroke-miterlimit="10" stroke-width="2"></path><path d="m25.162499999999998 25.162499999999998 -1.6875 -1.6875" fill="none" stroke="#000000" stroke-miterlimit="10" stroke-width="2"></path><path d="M6.5249999999999995 6.5249999999999995 4.8375 4.8375" fill="none" stroke="#000000" stroke-miterlimit="10" stroke-width="2"></path><path d="m25.162499999999998 4.8375 -1.6875 1.6875" fill="none" stroke="#000000" stroke-miterlimit="10" stroke-width="2"></path><path d="m6.5249999999999995 23.475 -1.6875 1.6875" fill="none" stroke="#000000" stroke-miterlimit="10" stroke-width="2"></path><path d="m25.162499999999998 25.162499999999998 -1.6875 -1.6875" fill="none" stroke="#000000" stroke-miterlimit="10" stroke-width="2"></path><path d="M6.5249999999999995 6.5249999999999995 4.8375 4.8375" fill="none" stroke="#000000" stroke-miterlimit="10" stroke-width="2"></path><path d="M6.6125 15a8.3875 8.3875 0 1 0 16.775 0 8.3875 8.3875 0 1 0 -16.775 0" fill="none" stroke="#000000" stroke-miterlimit="10" stroke-width="2"></path></svg>